<?xml version="1.0" encoding="utf-8"?>
<!-- Generator: Adobe Illustrator 27.4.1, SVG Export Plug-In . SVG Version: 6.00 Build 0)  -->
<svg version="1.1" id="Layer_1" xmlns="http://www.w3.org/2000/svg" xmlns:xlink="http://www.w3.org/1999/xlink" x="0px" y="0px"
	 viewBox="0 0 156.5 157.6" style="enable-background:new 0 0 156.5 157.6;" xml:space="preserve">
<style type="text/css">
	.st0{fill:#ED8EB2;}
	.st1{fill:#FFFFFF;}
</style>
<path d="M155.8,52.7L155.8,52.7c-1.6-10.3-5.8-18.8-12.6-25.3l-15.4-15l0,0c-4.2-4.1-9.2-7.2-15-9.3C97.6-2.4,79-0.5,60.4,8.5
	c-18.5,8.9-35,23.9-46.4,42.2C2.8,69-1.9,88.2,0.7,104.9c1.9,11.5,7.1,21.1,15.2,27.7l12.9,12.6c4.1,4,9.4,7.3,15.1,9.3
	c5.6,2,11.8,3,18.2,3c10.8,0,22.5-2.9,34.2-8.5c18.6-9,35-23.9,46.3-42.1C153.7,88.6,158.4,69.4,155.8,52.7z"/>
<path class="st0" d="M93.7,5.9c-12.8,0-27.2,4.5-40.5,12.8c-13.8,8.6-25.7,20.5-34.3,34.5C6.6,73,2.7,94.6,8.4,111
	c3.8,11.1,11.6,19,22.5,23c5,1.8,10.5,2.7,16.4,2.7c12.8,0,27.2-4.5,40.5-12.8c13.8-8.6,25.7-20.5,34.3-34.5
	c12.2-19.8,16.2-41.4,10.5-57.8c-3.8-11.1-11.6-19-22.5-23C105,6.8,99.5,5.9,93.7,5.9L93.7,5.9z"/>
<g>
	<path class="st1" d="M99.8,32.8c13,4.7,15.7,21.4,5.9,37.1C96,85.6,77.5,94.5,64.5,89.8l-8.1-3L39,114.9l-9.3-3.4l17.4-28.1l-8.1-3
		l7-11.2l8.1,3l7.2-11.7l-8.1-3l7-11.2l8.1,3l7.2-11.7l-8.1-3l7-11.2L87,28.1L99.8,32.8z M71.5,78.6c7.9,2.9,19.1-2.5,25-12.1
		c5.9-9.5,4.3-19.6-3.6-22.5l-8.1-3l-7.2,11.7l8.1,3l-7,11.2l-8.1-3l-7.2,11.7L71.5,78.6"/>
</g>
</svg>
