<?xml version="1.0" encoding="utf-8"?>
<!-- Generator: Adobe Illustrator 27.4.0, SVG Export Plug-In . SVG Version: 6.00 Build 0)  -->
<svg version="1.1" id="Layer_1" xmlns="http://www.w3.org/2000/svg" xmlns:xlink="http://www.w3.org/1999/xlink" x="0px" y="0px"
	 viewBox="0 0 425 157.6" style="enable-background:new 0 0 425 157.6;" xml:space="preserve">
<style type="text/css">
	.st0{enable-background:new    ;}
	.st1{fill:#ED8EB2;}
	.st2{fill:#FFFFFF;}
</style>
<g>
	<g>
		<g>
			<g class="st0">
				<g>
					<path d="M125.4,14.7L141,29.7c-3.9-3.8-8.7-6.8-14.4-8.9C96.7,9.9,54.2,30.4,31.8,66.6c-18.2,29.3-17.6,60-0.8,76.3l-15.5-15.1
						c-16.8-16.3-17.4-47,0.8-76.3C38.7,15.3,81.1-5.1,111.1,5.8C116.7,7.8,121.5,10.8,125.4,14.7z"/>
				</g>
				<g>
					<path class="st1" d="M140.9,29.7c6.5,6.3,10.5,14.6,12.1,24.2c-0.5-0.5-1.3-1.2-1.8-1.8c-0.6-0.6-1.3-1.3-1.9-1.9
						c-0.6-0.6-1.4-1.4-2-1.9c-0.6-0.6-1.4-1.4-2-2c-0.6-0.6-1.4-1.4-2-2c-0.6-0.6-1.4-1.4-2-1.9c-0.6-0.6-1.3-1.3-1.9-1.9
						c-0.5-0.5-1.3-1.2-1.8-1.8c-1.5-9.6-5.6-18-12.1-24.2C130.1,19.1,136.3,25.2,140.9,29.7z"/>
				</g>
				<g>
					<path d="M127.8,12.3l15.5,15.1c6.6,6.4,10.9,14.9,12.5,25.2l-15.5-15.1C138.6,27.3,134.3,18.7,127.8,12.3z"/>
				</g>
				<g>
					<path class="st1" d="M45.5,151.8c-5.6-2.1-10.4-5.1-14.4-8.9l-15.5-15.1c3.9,3.8,8.7,6.8,14.4,8.9
						c29.9,10.9,72.4-9.6,94.8-45.8c11.2-18.1,15.3-36.7,12.8-52.1c5.2,5,10.4,10.1,15.5,15.1c2.5,15.4-1.6,34-12.8,52.1
						C117.8,142.2,75.4,162.7,45.5,151.8z"/>
				</g>
				<g>
					<path d="M28.8,145.2l-15.5-15.1c4.1,4,9.2,7.2,15,9.3c15.1,5.5,33.6,3.5,52.3-5.5c18.6-9,35.1-24,46.4-42.2
						c11.3-18.2,16-37.5,13.3-54.2l15.5,15.1c2.7,16.8-2.1,36-13.3,54.2c-11.3,18.2-27.8,33.2-46.4,42.2c-18.6,9-37.2,10.9-52.3,5.5
						C38,152.4,32.9,149.2,28.8,145.2z"/>
				</g>
				<g>
					<path d="M140.3,37.5c2.7,16.8-2.1,36-13.3,54.2C115.6,110,99.2,125,80.5,134c-18.6,9-37.2,10.9-52.3,5.5
						c-15.1-5.5-24.8-17.7-27.5-34.5c-2.7-16.8,2.1-36,13.3-54.2C25.4,32.5,41.8,17.5,60.5,8.5c18.6-9,37.2-10.9,52.3-5.4
						C127.8,8.5,137.6,20.8,140.3,37.5z M29.9,136.7c29.9,10.9,72.4-9.6,94.8-45.8c22.4-36.2,16.3-74.3-13.6-85.2
						C81.1-5.1,38.7,15.3,16.3,51.5C-6.1,87.7,0,125.8,29.9,136.7"/>
				</g>
				<g>
					<path class="st1" d="M111.1,5.8c29.9,10.9,36,49,13.6,85.2c-22.4,36.2-64.8,56.7-94.8,45.8c-29.9-10.9-36-49-13.6-85.2
						C38.7,15.3,81.1-5.1,111.1,5.8z"/>
				</g>
			</g>
		</g>
		<g>
			<path class="st2" d="M99.8,32.8c13,4.7,15.7,21.4,5.9,37.1C96,85.6,77.5,94.5,64.5,89.8l-8.1-3L39,114.9l-9.3-3.4l17.4-28.1
				l-8.1-3l7-11.2l8.1,3l7.2-11.7l-8.1-3l7-11.2l8.1,3l7.2-11.7l-8.1-3l7-11.2L87,28.1L99.8,32.8z M71.5,78.6
				c7.9,2.9,19.1-2.5,25-12.1c5.9-9.5,4.3-19.6-3.6-22.5l-8.1-3l-7.2,11.7l8.1,3l-7,11.2l-8.1-3l-7.2,11.7L71.5,78.6"/>
		</g>
	</g>
	<g>
		<path d="M208.8,43.7h-27.5h-0.9v0.9v69.1v0.9h0.9h8.3h0.9v-0.9V85h18.4c12.6,0,20.2-7.7,20.2-20.7C229,51.4,221.4,43.7,208.8,43.7
			z M218.3,66.9c0,5.8-3.4,9-9.5,9h-18.4V52.7h18.4c6.2,0,9.5,3.2,9.5,9V66.9z"/>
		<path d="M274.3,105.9V78.6c0-11.3-7.7-18.1-20.5-18.1c-8.5,0-15.5,3.9-18.9,10.5l-0.3,0.6l0.5,0.4l4.8,4.5l0.8,0.7l0.5-0.9
			c2.9-4.9,6.9-7.2,12.2-7.2c7.4,0,11.2,3.5,11.2,10.3v4.2h-9.2c-18.7,0-22.6,8.6-22.6,15.8c0,10.1,6.9,16.3,18,16.3
			c6.9,0,12.2-3,14.8-8.2c1.2,4.6,4.4,7,9.3,7h4.5h0.9v-0.9v-6.9v-0.9h-0.9H274.3z M242.8,98.1c0-4.6,4-6.9,12.2-6.9h9.6v7.6
			c0,4.8-5.4,8.5-12.6,8.5c-5.8,0-9.2-2.6-9.2-7.1V98.1z"/>
		<path d="M317.5,61.7h-0.6l-0.2,0.6l-12.4,34.8l-2.2,6.5l-1.8-6.5L288,62.3l-0.2-0.6h-0.6h-7.9H278l0.4,1.1l19,52.8l-3.6,10h-12.4
			h-1.2l0.3,1.1l2.1,6.9l0.2,0.6h0.6h6.9c8.1,0,10.4-2.2,12.7-8.5l22.9-63l0.4-1.1h-1.2H317.5z"/>
		<polygon points="368.7,61.7 368.1,61.7 367.9,62.3 358.8,87.6 353.8,103.3 348.8,87.7 339.9,62.3 339.7,61.7 339.1,61.7 
			331.2,61.7 329.9,61.7 330.3,62.9 348.3,114 348.5,114.5 349.1,114.5 358.3,114.5 358.9,114.5 359.1,114 377.1,62.9 377.5,61.7 
			376.3,61.7 		"/>
		<path d="M402.1,60.5c-14.5,0-23.8,10.8-23.8,27.6c0,16.8,9.4,27.6,23.8,27.6c9.5,0,17.4-4.6,21-12.2l0.3-0.6l-0.6-0.4l-5.6-4.1
			l-0.8-0.6l-0.4,0.9c-2.5,5.4-7.3,8.3-13.3,8.3c-8.6,0-14.3-5.9-14.3-14.6V91h35.9h0.9v-0.9v-3.8C425,70.9,415.8,60.5,402.1,60.5z
			 M388.3,83.3c0.1-8.5,5.7-14.4,13.8-14.4c7.6,0,12.7,5.7,12.7,14.2v0.2H388.3z"/>
	</g>
</g>
</svg>
