<?xml version="1.0" encoding="utf-8"?>
<!-- Generator: Adobe Illustrator 27.4.1, SVG Export Plug-In . SVG Version: 6.00 Build 0)  -->
<svg version="1.1" id="Layer_1" xmlns="http://www.w3.org/2000/svg" xmlns:xlink="http://www.w3.org/1999/xlink" x="0px" y="0px"
	 viewBox="0 0 425 157.6" style="enable-background:new 0 0 425 157.6;" xml:space="preserve">
<style type="text/css">
	.st0{fill:#ED8EB2;}
	.st1{fill:#FFFFFF;}
</style>
<path d="M155.8,52.7L155.8,52.7c-1.6-10.3-5.8-18.8-12.6-25.3l-15.4-15l0,0c-4.2-4.1-9.2-7.2-15-9.3C97.6-2.4,79-0.5,60.4,8.5
	c-18.5,8.9-35,23.9-46.4,42.2C2.8,69-1.9,88.2,0.7,104.9c1.9,11.5,7.1,21.1,15.2,27.7l12.9,12.6c4.1,4,9.4,7.3,15.1,9.3
	c5.6,2,11.8,3,18.2,3c10.8,0,22.5-2.9,34.2-8.5c18.6-9,35-23.9,46.3-42.1C153.7,88.6,158.4,69.4,155.8,52.7z"/>
<path class="st0" d="M93.7,5.9c-12.8,0-27.2,4.5-40.5,12.8c-13.8,8.6-25.7,20.5-34.3,34.5C6.6,73,2.7,94.6,8.4,111
	c3.8,11.1,11.6,19,22.5,23c5,1.8,10.5,2.7,16.4,2.7c12.8,0,27.2-4.5,40.5-12.8c13.8-8.6,25.7-20.5,34.3-34.5
	c12.2-19.8,16.2-41.4,10.5-57.8c-3.8-11.1-11.6-19-22.5-23C105,6.8,99.5,5.9,93.7,5.9L93.7,5.9z"/>
<g>
	<path class="st1" d="M99.8,32.8c13,4.7,15.7,21.4,5.9,37.1C96,85.6,77.5,94.5,64.5,89.8l-8.1-3L39,114.9l-9.3-3.4l17.4-28.1l-8.1-3
		l7-11.2l8.1,3l7.2-11.7l-8.1-3l7-11.2l8.1,3l7.2-11.7l-8.1-3l7-11.2L87,28.1L99.8,32.8z M71.5,78.6c7.9,2.9,19.1-2.5,25-12.1
		c5.9-9.5,4.3-19.6-3.6-22.5l-8.1-3l-7.2,11.7l8.1,3l-7,11.2l-8.1-3l-7.2,11.7L71.5,78.6"/>
</g>
<g>
	<path d="M208.8,40.7h-27.5h-0.9v0.9v69.1v0.9h0.9h8.3h0.9v-0.9V82h18.4c12.6,0,20.2-7.7,20.2-20.7C229,48.4,221.4,40.7,208.8,40.7z
		 M218.3,63.9c0,5.8-3.4,9-9.5,9h-18.4V49.7h18.4c6.2,0,9.5,3.2,9.5,9V63.9z"/>
	<path d="M274.3,102.9V75.6c0-11.3-7.7-18.1-20.5-18.1c-8.5,0-15.5,3.9-18.9,10.5l-0.3,0.6l0.5,0.4l4.8,4.5l0.8,0.7l0.5-0.9
		c2.9-4.9,6.9-7.2,12.2-7.2c7.4,0,11.2,3.5,11.2,10.3v4.2h-9.2c-18.7,0-22.6,8.6-22.6,15.8c0,10.1,6.9,16.3,18,16.3
		c6.9,0,12.2-3,14.8-8.2c1.2,4.6,4.4,7,9.3,7h4.5h0.9v-0.9v-6.9v-0.9h-0.9h-5.1V102.9z M242.8,95.1c0-4.6,4-6.9,12.2-6.9h9.6v7.6
		c0,4.8-5.4,8.5-12.6,8.5c-5.8,0-9.2-2.6-9.2-7.1V95.1z"/>
	<path d="M317.5,58.7h-0.6l-0.2,0.6l-12.4,34.8l-2.2,6.5l-1.8-6.5L288,59.3l-0.2-0.6h-0.6h-7.9H278l0.4,1.1l19,52.8l-3.6,10h-12.4
		h-1.2l0.3,1.1l2.1,6.9l0.2,0.6h0.6h6.9c8.1,0,10.4-2.2,12.7-8.5l22.9-63l0.4-1.1h-1.2h-7.6V58.7z"/>
	<polygon points="368.7,58.7 368.1,58.7 367.9,59.3 358.8,84.6 353.8,100.3 348.8,84.7 339.9,59.3 339.7,58.7 339.1,58.7 
		331.2,58.7 329.9,58.7 330.3,59.9 348.3,111 348.5,111.5 349.1,111.5 358.3,111.5 358.9,111.5 359.1,111 377.1,59.9 377.5,58.7 
		376.3,58.7 	"/>
	<path d="M402.1,57.5c-14.5,0-23.8,10.8-23.8,27.6s9.4,27.6,23.8,27.6c9.5,0,17.4-4.6,21-12.2l0.3-0.6l-0.6-0.4l-5.6-4.1l-0.8-0.6
		l-0.4,0.9c-2.5,5.4-7.3,8.3-13.3,8.3c-8.6,0-14.3-5.9-14.3-14.6V88h35.9h0.9v-0.9v-3.8C425,67.9,415.8,57.5,402.1,57.5z
		 M388.3,80.3c0.1-8.5,5.7-14.4,13.8-14.4c7.6,0,12.7,5.7,12.7,14.2v0.2C414.8,80.3,388.3,80.3,388.3,80.3z"/>
</g>
</svg>
